<?xml version="1.0" encoding="UTF-8"?>
<svg width="1280pt" height="1280pt" version="1.0" viewBox="0 0 1280 1280" xmlns="http://www.w3.org/2000/svg">
 <g transform="translate(0 1280) scale(.1 -.1)">
  <path d="m5120 9019c-413-37-793-219-1086-520-241-249-390-538-461-894-25-128-25-492 0-620 53-266 158-511 308-718 54-74 2504-2537 2524-2537 16 0 2415 2407 2472 2480 222 286 343 594 374 958 34 389-83 809-319 1142-86 121-270 306-392 392-522 370-1204 427-1775 149-102-50-229-128-300-185-22-18-45-35-51-39-6-3-58 27-115 68-122 88-345 202-477 245-124 40-263 67-402 80-128 11-164 11-300-1zm462-278c270-58 515-188 721-381l98-93 27 24c15 13 62 56 105 96 175 162 379 272 624 337 274 73 605 58 873-39 715-259 1115-1021 923-1760-50-193-132-363-249-517-39-52-476-496-1183-1203l-1121-1120-1121 1120c-720 720-1143 1150-1184 1204-123 163-219 379-266 601-29 139-32 408-6 545 43 222 146 458 271 625 134 179 342 350 540 444 137 66 325 121 476 140 90 11 377-3 472-23z"/>
 </g>
 <path transform="scale(.75)" d="m725.51 1032.6c-164.8-165.27-179.65-180.68-188.25-195.46-9.9221-17.04-18.976-39.067-23.959-58.289-3.6994-14.271-4.3325-20.522-4.4453-43.893-0.14926-30.934 2.5681-45.718 13.444-73.146 24.719-62.337 77.902-106.42 144.84-120.06 19.29-3.931 30.089-4.2643 58.03-1.791 40.664 3.5996 78.045 20.739 112.89 51.76 7.9338 7.0634 14.974 12.865 15.646 12.892 0.67156 0.0271 6.8033-5.0162 13.626-11.207 43.534-39.504 91.755-57.512 146.11-54.564 37.001 2.0068 67.651 11.98 97.532 31.735 19.009 12.568 41.701 34.621 53.478 51.973 47.092 69.386 45.677 161.1-3.4993 226.77-7.8455 10.477-304.89 310.61-307.42 310.61-0.58254 0-58.192-57.294-128.02-127.32z" fill="#f00" stroke-width="1.7033"/>
</svg>
