<?xml version="1.0" standalone="no"?>
<!DOCTYPE svg PUBLIC "-//W3C//DTD SVG 20010904//EN"
 "http://www.w3.org/TR/2001/REC-SVG-20010904/DTD/svg10.dtd">
<svg version="1.0" xmlns="http://www.w3.org/2000/svg"
 width="1280.000000pt" height="1280.000000pt" viewBox="0 0 1280.000000 1280.000000"
 preserveAspectRatio="xMidYMid meet">
<g transform="translate(0.000000,1280.000000) scale(0.100000,-0.100000)"
fill="#000000" stroke="none">
<path d="M5120 9019 c-413 -37 -793 -219 -1086 -520 -241 -249 -390 -538 -461
-894 -25 -128 -25 -492 0 -620 53 -266 158 -511 308 -718 54 -74 2504 -2537
2524 -2537 16 0 2415 2407 2472 2480 222 286 343 594 374 958 34 389 -83 809
-319 1142 -86 121 -270 306 -392 392 -522 370 -1204 427 -1775 149 -102 -50
-229 -128 -300 -185 -22 -18 -45 -35 -51 -39 -6 -3 -58 27 -115 68 -122 88
-345 202 -477 245 -124 40 -263 67 -402 80 -128 11 -164 11 -300 -1z m462
-278 c270 -58 515 -188 721 -381 l98 -93 27 24 c15 13 62 56 105 96 175 162
379 272 624 337 274 73 605 58 873 -39 715 -259 1115 -1021 923 -1760 -50
-193 -132 -363 -249 -517 -39 -52 -476 -496 -1183 -1203 l-1121 -1120 -1121
1120 c-720 720 -1143 1150 -1184 1204 -123 163 -219 379 -266 601 -29 139 -32
408 -6 545 43 222 146 458 271 625 134 179 342 350 540 444 137 66 325 121
476 140 90 11 377 -3 472 -23z"/>
</g>
</svg>
